/* XPM */
static char * autocanary_xpm[] = {
"64 64 257 2",
"  	c None",
". 	c #C2AD00",
"+ 	c #47A2FF",
"@ 	c #B4B34D",
"# 	c #CFD6CA",
"$ 	c #0565C8",
"% 	c #654E00",
"& 	c #096ACD",
"* 	c #CCE5FF",
"= 	c #ACD5FF",
"- 	c #C9DEF2",
"; 	c #A4B471",
"> 	c #3999FC",
", 	c #3696F9",
"' 	c #68875A",
") 	c #FFC500",
"! 	c #0E70D3",
"~ 	c #6AB3FD",
"{ 	c #8C6B00",
"] 	c #87C2FE",
"^ 	c #B5C59D",
"/ 	c #0A83FE",
"( 	c #D2E8FF",
"_ 	c #FFDB00",
": 	c #AAAB2F",
"< 	c #E4D91B",
"[ 	c #1B7DE1",
"} 	c #2485E9",
"| 	c #FFD400",
"1 	c #2376CC",
"2 	c #DAECFE",
"3 	c #63AFFE",
"4 	c #0C6DD1",
"5 	c #A4C5E8",
"6 	c #88B477",
"7 	c #2B8DF0",
"8 	c #1475D9",
"9 	c #3192F5",
"0 	c #D1B72E",
"a 	c #FFA500",
"b 	c #97BA68",
"c 	c #268CD9",
"d 	c #FFCC00",
"e 	c #F4F9FE",
"f 	c #1172D6",
"g 	c #EBF4FF",
"h 	c #3793C8",
"i 	c #298AEE",
"j 	c #0069D6",
"k 	c #64A69B",
"l 	c #F9FCFE",
"m 	c #0173E9",
"n 	c #198BFE",
"o 	c #1E80E4",
"p 	c #75A98A",
"q 	c #439FFD",
"r 	c #FFBA00",
"s 	c #6C6C6C",
"t 	c #2A93FE",
"u 	c #6D9992",
"v 	c #017DFD",
"w 	c #3486DA",
"x 	c #5898D9",
"y 	c #E5F2FF",
"z 	c #FFE100",
"A 	c #B28C07",
"B 	c #1085FD",
"C 	c #0279F4",
"D 	c #C9B400",
"E 	c #FFEB00",
"F 	c #B9A500",
"G 	c #88B3DE",
"H 	c #70A4D9",
"I 	c #B6DAFF",
"J 	c #5CACFE",
"K 	c #8BB6E2",
"L 	c #7ABCFF",
"M 	c #979797",
"N 	c #3A84CD",
"O 	c #ABBD8D",
"P 	c #4898E9",
"Q 	c #0781FE",
"R 	c #FF9C00",
"S 	c #888C7C",
"T 	c #C4CD3B",
"U 	c #FFBE00",
"V 	c #146CC6",
"W 	c #343434",
"X 	c #0060C2",
"Y 	c #83BBF4",
"Z 	c #BBC944",
"` 	c #55A9FF",
" .	c #E4CA00",
"..	c #E3BC1C",
"+.	c #555555",
"@.	c #2082E6",
"#.	c #0262C4",
"$.	c #C49600",
"%.	c #257ED7",
"&.	c #FF9100",
"*.	c #ADADAD",
"=.	c #EBD200",
"-.	c #C5E2FF",
";.	c #9BCDFF",
">.	c #1678DC",
",.	c #6AA9E9",
"'.	c #0372E3",
").	c #3C9CFE",
"!.	c #D8D527",
"~.	c #208EFE",
"{.	c #DAC300",
"].	c #C6DAEF",
"^.	c #9EAC52",
"/.	c #0C82F4",
"(.	c #519DAE",
"_.	c #95BDE7",
":.	c #A8C157",
"<.	c #F1BE0E",
"[.	c #026CDA",
"}.	c #A3CBF4",
"|.	c #4599BA",
"1.	c #73B8FF",
"2.	c #187ADE",
"3.	c #59A1A6",
"4.	c #458CD5",
"5.	c #8AA776",
"6.	c #1486EB",
"7.	c #95CAFE",
"8.	c #3699FF",
"9.	c #1F6BA7",
"0.	c #FFF000",
"a.	c #D3E3F4",
"b.	c #017CFA",
"c.	c #171307",
"d.	c #3797FA",
"e.	c #1488FE",
"f.	c #DFEEFD",
"g.	c #5AA2EB",
"h.	c #B5D0ED",
"i.	c #C89137",
"j.	c #E0E0E0",
"k.	c #F6DC00",
"l.	c #097DF4",
"m.	c #CAD235",
"n.	c #2590FD",
"o.	c #0667CA",
"p.	c #2688EC",
"q.	c #3A97F5",
"r.	c #589DE4",
"s.	c #6FB5FD",
"t.	c #AAA418",
"u.	c #A5D0FD",
"v.	c #FF8A00",
"w.	c #9DC2E8",
"x.	c #5B89A5",
"y.	c #4887B8",
"z.	c #F9BE06",
"A.	c #FCF8E6",
"B.	c #F6E109",
"C.	c #D49B00",
"D.	c #3394F7",
"E.	c #0965C3",
"F.	c #C28E01",
"G.	c #127EED",
"H.	c #0464C7",
"I.	c #79ABE0",
"J.	c #2188F3",
"K.	c #1282F3",
"L.	c #1983F1",
"M.	c #3C8EE1",
"N.	c #F0F7FD",
"O.	c #1E73CA",
"P.	c #8FC6FE",
"Q.	c #3B9BFD",
"R.	c #D0BA00",
"S.	c #639EDA",
"T.	c #9C7500",
"U.	c #B8AC11",
"V.	c #FFE600",
"W.	c #B5D4F5",
"X.	c #0A7BEF",
"Y.	c #82B0E0",
"Z.	c #382900",
"`.	c #AECBEA",
" +	c #C5D1AE",
".+	c #BEDEFE",
"++	c #FFAF00",
"@+	c #CDE1F4",
"#+	c #1881EA",
"$+	c #147AE4",
"%+	c #1A76D4",
"&+	c #0873E0",
"*+	c #057EF9",
"=+	c #1A88E5",
"-+	c #2F96FF",
";+	c #2F8FF3",
">+	c #BD9442",
",+	c #0061C5",
"'+	c #0E79E6",
")+	c #0263C6",
"!+	c #4B8CCF",
"~+	c #B1D7FD",
"{+	c #96AB69",
"]+	c #3094F9",
"^+	c #BFDBF8",
"/+	c #0677EC",
"(+	c #251E07",
"_+	c #BFD6EE",
":+	c #007BF8",
"<+	c #F0DE0F",
"[+	c #0167CF",
"}+	c #8BB7E5",
"|+	c #037FFD",
"1+	c #0176EF",
"2+	c #F9E206",
"3+	c #FADF00",
"4+	c #0163C8",
"5+	c #026FDF",
"6+	c #0364C6",
"7+	c #0161C3",
"8+	c #F3B200",
"9+	c #F0D700",
"0+	c #3F99F5",
"a+	c #C0CCC2",
"b+	c #CEE6FE",
"c+	c #D9E8F9",
"d+	c #0B67C7",
"e+	c #3E94ED",
"f+	c #E1A400",
"g+	c #86B7EB",
"h+	c #1686F8",
"i+	c #1D88F4",
"j+	c #317ECD",
"k+	c #F3F6F0",
"l+	c #C8BB60",
"m+	c #EEF2EF",
"n+	c #ED9A12",
"o+	c #E4EBE4",
"p+	c #65B19A",
"q+	c #7EB081",
"r+	c #7AB8F8",
"s+	c #328FF0",
"t+	c #D0AF1F",
"u+	c #2C88E8",
"v+	c #E8F0F9",
"w+	c #52A2F4",
"x+	c #58A8FB",
"y+	c #453900",
"z+	c #D0A500",
"A+	c #F69B09",
"B+	c #5091D4",
"C+	c #3D9DFF",
"D+	c #FFE400",
"E+	c #000000",
"F+	c #FFFFFF",
"G+	c #007EFF",
"H+	c #FFFFFF",
"                                                  7.J C+C+C+C+C+C+C+C+C+C+J P.                                                  ",
"                                            L C+C+C+C+C+C+C+C+C+C+C+C+C+C+C+C+C+C+s.                                            ",
"                                        C+C+C+C+C+C+C+C+C+C+C+C+C+C+C+C+C+C+C+C+C+C+C+C+                                        ",
"                                    ).C+C+C+C+C+C+-+e.|+G+G+G+G+G+G+G+G+G+e.t C+C+C+C+C+C+).                                    ",
"                                C+C+C+C+C+n G+G+G+G+G+G+G+G+G+G+G+G+G+G+G+G+G+G+G+G+n ).Q.Q.Q.Q.                                ",
"                            C+C+C+C+C+n.G+G+G+G+G+G+G+G+G+G+G+G+G+G+G+G+G+G+G+G+G+G+G+G+~.Q.Q.> > >                             ",
"                          C+C+C+C+t G+G+G+G+G+G+G+G+G+G+G+G+G+G+G+G+G+G+G+G+G+G+G+G+G+G+G+G+n.> > > d.                          ",
"                        C+C+C+C+G+G+G+G+G+G+G+G+G+G+G+G+G+G+G+G+G+G+G+G+G+G+G+G+G+G+G+G+G+G+G+G+d.d.d.d.                        ",
"                    q C+C+C+e.G+F+F+F+F+F+F+F+F+F+F+F+F+v G+G+G+G+G+G+G+G+G+G+G+G+G+G+G+G+G+G+G+G+B , , D.D.                    ",
"                  C+C+C+C+G+G+.+F+F+F+F+F+F+F+F+F+F+F+F+F+j G+G+G+G+G+G+G+G+G+G+G+G+G+G+G+G+G+G+G+G+G+D.D.9 9                   ",
"                q C+C+C+G+G+|+F+F+F+F+] ` ` ` ` ;.F+F+F+F+a.'.G+G+G+G+G+G+G+G+G+G+G+G+G+G+G+G+G+G+G+G+G+9 9 9 9                 ",
"                C+C+C+n G+G+] F+F+F+F++ G+G+G+G+~ F+F+F+F+F+,+G+G+G+G+G+G+G+G+G+G+G+G+G+G+G+G+G+G+G+G+G+B 9 9 ;+                ",
"              C+C+C+G+G+G+G+= F+F+F+F+` G+G+G+G+s.F+F+F+F+F+,+G+G+G+G+G+G+G+G+G+G+G+G+G+G+G+G+G+G+G+G+G+G+G+;+;+7               ",
"            C+C+C+G+G+G+G+G+= F+F+F+F+;.G+G+G+G+= F+F+F+F+F+,+G+G+G+G+G+G+G+G+G+G+G+G+G+G+G+G+G+G+G+G+G+G+G+G+7 7 7             ",
"          C+C+C+e.G+G+G+G+G+= F+F+F+F+g G+G+G+G+N.F+F+F+F+F+,+G+G+G+G+G+G+G+G+G+G+G+G+G+G+G+G+G+G+G+G+G+G+G+G+Q 7 i i           ",
"          C+C+C+G+G+G+G+G+G+= F+F+F+F+F+G+G+G+G+F+F+F+F+F+F+,+G+G+G+G+G+G+G+G+G+G+G+G+G+G+G+G+G+G+G+G+G+G+G+G+G+i i i           ",
"        C+C+C+G+G+G+G+G+G+G+= F+F+F+F+F+G+G+G+G+F+F+F+F+F+F+,+G+G+G+G+G+G+G+G+G+G+G+G+G+G+G+G+G+G+G+G+G+G+G+G+G+G+p.p.p.        ",
"        C+C+-+G+G+G+G+G+G+G+= F+F+F+F+F+G+G+G+G+F+F+F+F+F+F+,+G+G+G+G+G+G+G+G+G+G+G+G+G+G+G+G+G+G+G+G+G+G+G+G+G+G+L.} }         ",
"      C+C+C+G+G+G+G+G+G+G+G+= F+F+F+F+F+G+G+G+G+F+F+F+F+F+F+,+G+G+G+G+G+G+G+G+G+G+G+G+G+G+G+G+G+G+G+G+G+G+G+G+G+G+G+} } }       ",
"      C+C+t G+G+G+G+G+G+G+G+= F+F+F+F+F+G+G+G+G+F+F+F+F+F+F+,+G+G+G+G+G+G+G+G+G+G+G+G+G+G+G+G+G+G+G+G+G+G+G+G+G+G+G+K.@.@.      ",
"    C+).).G+G+G+G+G+G+G+G+G+= F+F+F+F+F+B G+G+~.F+F+F+F+F+F+,+G+G+G+G+G+G+G+G+G+G+G+G+G+G+G+G+G+G+G+G+G+G+G+G+G+G+G+G+@.o o     ",
"    ).Q.n G+G+G+G+G+G+G+G+G+= F+F+F+F+F+` G+G+J F+F+F+F+F+F+,+G+G+G+G+G+G+G+G+G+G+G+G+G+G+G+G+G+G+G+G+G+G+G+G+G+G+G+G+l.o o     ",
"  1.Q.Q.G+G+G+G+G+G+G+G+G+G+= F+F+F+F+F+2 ;.;.2 F+F+F+F+F+F+,+G+G+G+G+G+G+G+G+G+G+G+G+G+G+G+G+G+G+G+G+G+G+G+G+G+G+G+G+G+o [ M.  ",
"  Q.Q.> G+G+G+G+G+G+G+G+G+G+= F+F+F+F+F+F+F+F+F+F+F+F+F+F+F+,+G+G+G+G+G+G+G+G+G+G+G+G+G+G+G+G+G+G+G+G+G+G+G+G+G+G+G+G+G+[ [ 2.  ",
"  > > > G+G+G+G+G+G+G+G+G+G+= F+F+F+F+( G+G+G+G+* F+F+F+F+F+,+G+G+G+G+G+G+G+G+G+G+G+G+G+G+G+G+G+G+G+G+G+G+G+G+G+G+G+G+G+[ 2.2.  ",
"P.> > t G+G+G+G+G+G+G+G+G+G+= F+F+F+F+( G+G+G+G+b+F+F+F+F+F+,+G+G+G+G+G+G+G+G+G+G+G+G+G+G+G+G+G+G+G+G+G+G+G+G+G+G+G+G+G+G.2.2.r.",
"x+d.d.B G+G+G+G+G+G+G+G+G+G+= F+F+F+F+( G+G+G+G+b+F+F+F+F+F+,+G+G+G+G+G+G+G+G+G+G+G+G+G+G+G+G+G+G+G+G+G+G+G+G+G+G+G+G+G+*+>.>.%.",
"d.d.d.G+G+G+G+G+G+G+G+G+G+G+;.F+F+F+F+( G+G+G+G+b+F+F+F+F+F+,+G+G+G+G+G+G+G+G+G+|+(.b :.(./.G+G+G+G+G+G+G+G+G+G+G+G+G+G+G+>.>.8 ",
", , , G+G+G+G+G+G+G+G+G+G+G+G+F+F+F+F+F+F+F+F+F+F+F+F+F+F+_.,+G+G+G+G+G+G+6.< D+D+D+D+D+D+D+D+D+c G+G+G+G+G+G+G+G+G+G+G+G+8 8 8 ",
", D.D.G+G+G+G+G+G+G+G+G+G+G+G++ F+F+F+F+F+F+F+F+F+F+F+F+F+,+m G+G+G+G+G+!.D+D+D+D+D+D+D+D+D+D+D+D+<+G+G+G+G+G+G+G+G+G+G+G+8 8 8 ",
"D.D.D.G+G+G+G+G+G+G+G+G+G+G+G+G+3 e F+F+F+F+F+F+F+e F+- ,+5+G+G+G+G+G+:.D+D+D+D+D+D+D+D+D+D+D+D+D+D+D+/.G+G+G+G+G+G+G+G+G+8 f f ",
"9 9 9 G+G+G+G+G+G+G+G+G+G+G+G+G+G+G+C m m m m F+F+K 5+m G+G+G+G+G+G+Z D+D+D+D+D+D+D+D+D+D+D+D+D+D+D+D+D+G+G+G+G+G+G+G+G+G+f f f ",
"9 9 ;+G+G+G+G+G+G+G+G+G+G+G+G+G+G+G+G+G+G+G+G+G+F+F+,+G+G+G+G+G+G+D+D+D+D+D+D+D+D+D+D+D+D+D+D+D+D+D+D+D+D+G+G+G+G+G+G+G+G+f ! ! ",
"s+;+;+G+G+G+G+G+G+G+G+G+G+G+G+G+G+G+G+G+G+G+G+G+-+F+x C G+G+G+G+q+D+D+D+D+D+D+D+D+D+D+D+D+D+D+D+D+D+D+D+D+Z G+G+G+G+G+G+G+! ! ! ",
"s+;+;+G+G+G+G+G+G+G+G+G+G+G+G+G+G+G+G+G+G+G+G+G+G++ F+[+G+G+G+G+D+D+D+D+D+D+D+D+D+3+T.% 9+D+D+D+D+D+D+D+D+D+G+G+G+G+G+G+G+! 4 4 ",
"7 7 7 G+G+G+G+G+G+G+G+G+G+G+G+G+G+G+G+G+G+G+G+G+G+G+] ,+G+G+G+G+D+D+D+D+D+D+D+D+y+E+E+E+E+Z.z D+D+D+D+D+D+D+b G+G+G+G+G+G+! 4 4 ",
"7 7 7 G+G+G+G+G+G+G+G+G+G+G+G+G+G+G+G+G+G+G+G+G+G+G+G+G+G+G+G+(.D+D+D+D+D+D+D+E+E+E+*.E+E+E+E+$.D+D+D+D+D+D+D+G+G+G+G+G+G+4 & & ",
"P i i / G+G+G+G+G+G+G+G+G+G+G+G+G+G+G+G+G+G+G+G+G+G+G+G+G+G+G+T D+D+D+D+D+D+R.E+E+F+F+E+E+E+E+E+D+D+D+D+D+D+D+h G+G+G+G+b.& & ! ",
"Y i i i+G+G+G+G+G+G+G+G+G+G+G+G+G+G+G+G+G+G+G+G+G+G+G+G+G+G+T D+D+D+D+D+D+D+E+E+# F+E+E+E+E+E+E+d D+D+D+D+D+D+p G+G+G+G+&+& & 4.",
"  p.p.p.G+G+G+G+G+G+G+G+G+G+G+G+G+G+G+G+G+G+G+G+G+G+G+G+!.D+D+D+D+D+D+D+D+D+E+E+F+W E+E+E+E+E+E+r D+D+D+D+D+D+b G+G+G+G+& & &   ",
"  } } } G+G+G+G+G+G+G+G+G+G+G+G+G+G+G+G+G+G+G+G+G+6 D+D+D+D+D+D+D+D+D+D+D+D+E+E+j.l E+E+E+E+E+E+r D+D+D+D+D+D+@ G+G+G+G+o.o.o.  ",
"  g.} } G+G+G+G+G+G+G+G+G+G+G+G+G+G+G+G+G+G+G+h D+D+D+D+D+D+D+D+D+D+D+D+D+D+F.E+E+F+a+E+E+E+E+E+U D+D+D+D+D+z 5.G+G+G+G+o.o.O.  ",
"    } @./.G+G+G+G+G+G+G+G+G+G+G+G+G+G+G+G+o ..) | _ E E 0.0.E V.D+D+D+D+D+D+| E+E+E+E+E+E+E+E+T._ D+D+D+D+D+U G+G+G+G+C o.o.    ",
"    @.@.@.G+G+G+G+G+G+G+G+G+G+G+G+G+G+G+G+G+G+G+o S &.&.&.&.R a r U ) E D+D+D+r E+E+E+E+E+E+% r D+D+D+D+D+D+r G+G+G+G+o.$ $     ",
"      o o G.G+G+G+G+G+G+G+G+G+G+G+G+G+G+G+G+G+G+G+G+G+G+G+G+y.>+R &.0.D+D+D+D+D+r f+% % $.r U D+D+D+D+D+D+r G+G+G+G+m $ H.      ",
"      o [ [ G+G+G+G+G+G+G+G+G+G+G+G+G+G+G+G+G+G+G+G+G+G+G+G+G+G+..r D+D+D+D+D+D+D+z d ) d D+D+D+D+D+D+D+U z.G+G+G+G+$ $ H.      ",
"        [ [ G.G+G+G+G+G+G+G+G+G+G+G+G+G+G+G+G+G+G+G+G+G+G+G+G+G+G+r U D+D+D+D+D+D+D+D+D+D+D+D+D+D+D+D+D+r G+G+G+G+'.H.6+        ",
"        [ 2.2.G+G+G+G+G+G+G+G+G+G+G+G+G+G+G+G+G+G+G+G+G+G+G+G+G+G+G+r r D+D+D+D+D+D+D+D+D+D+D+D+D+D+z r h G+G+G+G+6+)+)+        ",
"          2.>.>.G+G+G+G+G+G+G+G+G+G+G+G+G+G+G+G+G+G+G+G+G+G+G+G+G+G+G+U r ) D+D+D+D+D+D+D+D+D+D+d r r u G+G+G+G+)+)+#.          ",
"          >.>.>.*+G+G+G+G+G+G+G+G+G+G+G+G+G+G+G+G+G+G+G+G+G+G+G+G+G+G+G+r r r r _ D+D+D+D+_ d r r r 0 G+G+G+G+b.#.#.#.          ",
"            8 8 8 G+G+G+G+G+G+G+G+G+G+G+G+G+G+G+G+G+G+G+G+G+G+G+G+G+G+G+G+p r r r r r r r r r r | D+r r 5.G+G+#.#.7+            ",
"              8 8 8 G+G+G+G+G+G+G+G+G+G+G+G+G+G+G+G+G+G+G+G+G+G+G+G+G+G+G+G+G+/.<.r r r r ) | D+D+D+D+_ r r 9.7+7+              ",
"                f f f C G+G+G+G+G+G+G+G+G+G+G+G+G+G+G+G+G+G+G+G+G+G+G+G+G+G+G+k D+D+D+D+D+D+D+D+D+D+D+D+k.$.F.F.                ",
"                f f ! ! G+G+G+G+G+G+G+G+G+G+G+G+G+G+G+G+G+G+G+G+G+G+G+G+G+G+h D+D+D+D+D+D+D+D+D+D+D+D+D+. . $.F.                ",
"                  ! ! ! ! G+G+G+G+G+G+G+G+G+G+G+G+G+G+G+G+G+G+G+G+G+G+G+G+G+D+D+D+D+D+D+D+D+D+D+D+D+D+. . . .                   ",
"                    4 4 4 4 C G+G+G+G+G+G+G+G+G+G+G+G+G+G+G+G+G+G+G+G+G+G+D+D+D+D+D+D+D+D+D+D+D+D+k.. . . .                     ",
"                        4 & & & G+G+G+G+G+G+G+G+G+G+G+G+G+G+G+G+G+G+G+G+T D+D+D+D+D+D+D+D+D+D+D+. . . .                         ",
"                          & & & & '.G+G+G+G+G+G+G+G+G+G+G+G+G+G+G+G+G+G+D+D+D+D+D+D+D+D+D+D+ .. . . .                           ",
"                            & & & o.o.m G+G+G+G+G+G+G+G+G+G+G+G+G+G+G+G+D+D+D+D+D+D+D+D+ .. . . . .                             ",
"                                o.o.o.o.o.1+G+G+G+G+G+G+G+G+G+G+G+G+G+h D+D+D+D+D+D+9+. . . . .                                 ",
"                                    $ $ $ $ H.H.6+[.C G+G+G+G+G+G+G+G+b D+k.{.. . . . . . .                                     ",
"                                        H.H.6+)+)+)+#.#.#.#.7+)+)+X X ' . . . . . . . .                                         ",
"                                            1 )+#.#.#.#.7+7+X X X X X ' . . . . . t.                                            ",
"                                                  !+V 7+X X X X X X X ' . U.^.                                                  "};
